<?xml version="1.0" ?><!DOCTYPE svg  PUBLIC '-//W3C//DTD SVG 1.1//EN'  'http://www.w3.org/Graphics/SVG/1.1/DTD/svg11.dtd'><svg height="128px" id="Layer_1" style="enable-background:new 0 0 128 128;" version="1.1" viewBox="0 0 128 128" width="128px" xml:space="preserve" xmlns="http://www.w3.org/2000/svg" xmlns:xlink="http://www.w3.org/1999/xlink"><g><path d="M89.64,105.096H40.309c-3.584,0-6.5-2.916-6.5-6.5V28.361c0-3.584,2.916-6.5,6.5-6.5h28.724   c3.151,0,7.366,1.746,9.596,3.975l13.537,13.537c2.229,2.229,3.975,6.444,3.975,9.596v49.627   C96.14,102.18,93.224,105.096,89.64,105.096z M40.309,24.861c-1.93,0-3.5,1.57-3.5,3.5v70.235c0,1.93,1.57,3.5,3.5,3.5H89.64   c1.93,0,3.5-1.57,3.5-3.5V48.969c0-2.333-1.446-5.826-3.096-7.475L76.507,27.957c-1.649-1.649-5.143-3.096-7.475-3.096H40.309z" style="fill:#313335;"/></g><g><path d="M89.64,45.469H79.032c-3.584,0-6.5-2.916-6.5-6.5V28.361c0-3.013,1.617-4.082,3.002-4.082   c1.02,0,2.061,0.524,3.094,1.557l13.537,13.537c1.886,1.886,1.657,3.398,1.354,4.132C93.214,44.238,92.307,45.469,89.64,45.469z    M75.675,27.327c-0.062,0.16-0.143,0.476-0.143,1.034v10.608c0,1.93,1.57,3.5,3.5,3.5H89.64c0.558,0,0.874-0.081,1.034-0.143   c-0.069-0.157-0.235-0.438-0.63-0.832L76.507,27.957C76.112,27.563,75.832,27.397,75.675,27.327z" style="fill:#313335;"/></g><g><path d="M84.336,72.553h-38.95c-0.828,0-1.5-0.671-1.5-1.5s0.672-1.5,1.5-1.5h38.95   c0.828,0,1.5,0.671,1.5,1.5S85.164,72.553,84.336,72.553z" style="fill:#EE3E36;"/></g><g><path d="M84.336,58.353h-38.95c-0.828,0-1.5-0.671-1.5-1.5s0.672-1.5,1.5-1.5h38.95   c0.828,0,1.5,0.671,1.5,1.5S85.164,58.353,84.336,58.353z" style="fill:#EE3E36;"/></g><g><path d="M66.219,45.469H45.386c-0.828,0-1.5-0.671-1.5-1.5s0.672-1.5,1.5-1.5h20.833   c0.828,0,1.5,0.671,1.5,1.5S67.047,45.469,66.219,45.469z" style="fill:#EE3E36;"/></g><g><path d="M84.336,86.095h-38.95c-0.828,0-1.5-0.671-1.5-1.5s0.672-1.5,1.5-1.5h38.95   c0.828,0,1.5,0.671,1.5,1.5S85.164,86.095,84.336,86.095z" style="fill:#EE3E36;"/></g><rect height="128" id="_x3C_Slice_x3E__10_" style="fill:none;" width="128" x="1" y="-1"/></svg>